# AST/ASF file generated using VICON BodyLanguage
# -----------------------------------------------
:version 1.10
:name VICON
:units
  mass 1.0
  length 0.45
  angle deg
:documentation
   .ast/.asf automatically generated from VICON data using
   VICON BodyBuilder and BodyLanguage model FoxedUp or BRILLIANT.MOD
:root
   order TX TY TZ RX RY RZ
   axis XYZ
   position 0 0 0  
   orientation 0 0 0 
:bonedata
  begin
     id 1 
     name lhipjoint
     direction 0.671379 -0.66392 0.329334 
     length 2.38647 
     axis 0 0 0  XYZ
  end
  begin
     id 2 
     name lfemur
     direction 0.34202 -0.939693 0  
     length 6.48179  
     axis 0 0 20  XYZ
    dof rx ry rz
    limits (-160.0 20.0)
           (-70.0 70.0)
           (-60.0 70.0)
  end
  begin
     id 3 
     name ltibia
     direction 0.34202 -0.939693 0   
     length 6.86524   
     axis 0 0 20   XYZ
    dof rx
    limits (-10.0 170.0)
  end
  begin
     id 4 
     name lfoot
     direction 0.204886 -0.562919 0.800715   
     length 1.73031   
     axis -90 7.62852e-016 20   XYZ
    dof rx rz
    limits (-45.0 90.0)
           (-70.0 20.0)
  end
  begin
     id 5 
     name ltoes
     direction 1.53548e-011 -4.21841e-011 1   
     length 0.828161   
     axis -90 7.62852e-016 20   XYZ
    dof rx
    limits (-90.0 20.0)
  end
  begin
     id 6 
     name rhipjoint
     direction -0.662732 -0.670855 0.332775   
     length 2.3618  
     axis 0 0 0  XYZ 
  end
  begin
     id 7 
     name rfemur
     direction -0.34202 -0.939693 0   
     length 6.3025   
     axis 0 0 -20   XYZ
    dof rx ry rz
    limits (-160.0 20.0)
           (-70.0 70.0)
           (-70.0 60.0)
  end
  begin
     id 8 
     name rtibia
     direction -0.34202 -0.939693 0   
     length 6.8732   
     axis 0 0 -20   XYZ
    dof rx
    limits (-10.0 170.0)
 end
 begin
     id 9 
     name rfoot
     direction -0.173856 -0.477665 0.861168   
     length 1.54784  
     axis -90 -7.62852e-016 -20   XYZ
    dof rx rz
    limits (-45.0 90.0)
           (-20.0 70.0)
  end
  begin
     id 10 
     name rtoes
     direction -1.53562e-011 -4.21802e-011 1   
     length 0.759618   
     axis -90 -7.62852e-016 -20   XYZ
    dof rx
    limits (-90.0 20.0)
  end
  begin
     id 11 
     name lowerback
     direction -0.0278357 0.999497 -0.0151789   
     length 1.97203   
     axis 0 0 0   XYZ
    dof rx ry rz
    limits (-20.0 45.0)
           (-30.0 30.0)
           (-30.0 30.0)
  end
  begin
     id 12 
     name upperback
     direction -0.00360622 0.997542 0.0699804   
     length 1.94709   
     axis 0 0 0   XYZ
    dof rx ry rz
    limits (-20.0 45.0)
           (-30.0 30.0)
           (-30.0 30.0)
  end
  begin
     id 13 
     name thorax
     direction 0.00907706 0.997048 0.0762461   
     length 1.95722   
     axis 0 0 0   XYZ
    dof rx ry rz
    limits (-20.0 45.0)
           (-30.0 30.0)
           (-30.0 30.0)
  end
  begin
     id 14 
     name lowerneck
     direction -0.0481835 0.99872 -0.0153927   
     length 1.63078   
     axis 0 0 0   XYZ
    dof rx ry rz
    limits (-20.0 45.0)
           (-30.0 30.0)
           (-30.0 30.0)
  end
  begin
     id 15 
     name upperneck
     direction 0.0859716 0.979226 -0.183644   
     length 1.62591   
     axis 0 0 0   XYZ
    dof rx ry rz
    limits (-20.0 45.0)
           (-30.0 30.0)
           (-30.0 30.0)
  end
  begin
     id 16
     name head
     direction 0.0324821 0.997629 -0.0606773  
     length 1.64811  
     axis 0 0 0   XYZ
    dof rx ry rz
    limits (-20.0 45.0)
           (-30.0 30.0)
           (-30.0 30.0)
  end
  begin
     id 17 
     name lclavicle
     direction 0.939609 0.311019 0.142835  
     length 3.70647  
     axis 0 0 0   XYZ
    dof ry rz
    limits (-20.0 10.0)
           (0.0 20.0)
  end
  begin
     id 18 
     name lhumerus
     direction 1 -4.48963e-011 -1.59838e-027   
     length 4.59207   
     axis 180 -30 -90   XYZ
    dof rx ry rz
    limits (-60.0 90.0)
           (-90.0 90.0)
           (-90.0 90.0)
  end
  begin
     id 19
     name lradius
     direction 1 -4.48957e-011 -1.3483e-026   
     length 2.98109   
     axis 180 -30 -90   XYZ
    dof rx
    limits (-10.0 170.0)
  end
  begin
     id 20
     name lwrist
     direction 1 -4.48954e-011 -3.11579e-026   
     length 1.49055   
     axis 2.00652e-014 90 90   XYZ
    dof ry
    limits (-180.0 0.0)
 end
  begin
     id 21 
     name lhand
     direction 1 -4.4911e-011 -6.23158e-026   
     length 0.480203   
     axis 3.97628e-014 90 90   XYZ
    dof rx rz
    limits (-90.0 90.0)
           (-45.0 45.0)
  end
  begin
     id 22 
     name lfingers
     direction 1 -4.48893e-011 -1.24632e-025   
     length 0.387152   
     axis 7.95256e-014 90 90   XYZ
    dof rx
    limits (0.0 90.0)
  end
  begin
     id 23
     name lthumb
     direction 0.707107 -6.35013e-011 0.707107   
     length 0.555875   
     axis -90 45 2.85299e-015   XYZ
    dof rx rz
    limits (-45.0 45.0)
           (-45.0 45.0)
  end
  begin
     id 24 
     name rclavicle
     direction -0.950396 0.30392 0.0661859   
     length 3.70894  
     axis 0 0 0   XYZ 
    dof ry rz
    limits (-10.0 20.0)
           (-20.0 0.0)
  end
  begin
     id 25 
     name rhumerus
     direction -1 -4.48957e-011 -2.96677e-027  
     length 4.76508   
     axis 180 30 90   XYZ
    dof rx ry rz
    limits (-90.0 60.0)
           (-90.0 90.0)
           (-90.0 90.0)
  end
  begin
     id 26 
     name rradius
     direction -1 -4.48974e-011 -1.44501e-026   
     length 2.78902   
     axis 180 30 90   XYZ
    dof rx
    limits (-10.0 170.0)
  end
  begin
     id 27 
     name rwrist
     direction -1 -4.48978e-011 -3.11579e-026   
     length 1.39451   
     axis 2.00652e-014 -90 -90   XYZ
    dof ry
    limits (-180.0 0.0)
  end
  begin
     id 28
     name rhand
     direction -1 -4.48956e-011 -6.23158e-026   
     length 0.721303   
     axis 3.97628e-014 -90 -90   XYZ
    dof rx rz
    limits (-90.0 90.0)
           (-45.0 45.0)
  end
  begin
     id 29
     name rfingers
     direction -1 -4.4899e-011 -1.24632e-025   
     length 0.581533   
     axis 7.95256e-014 -90 -90   XYZ
    dof rx
    limits (0.0 90.0)
  end
  begin
     id 30
     name rthumb
     direction -0.707107 -6.34911e-011 0.707107   
     length 0.834968   
     axis -90 -45 -2.85299e-015   XYZ
    dof rx rz
    limits (-45.0 45.0)
           (-45.0 45.0)
  end
:hierarchy
  begin
    root lhipjoint rhipjoint lowerback
    lhipjoint lfemur
    lfemur ltibia
    ltibia lfoot
    lfoot ltoes
    rhipjoint rfemur
    rfemur rtibia
    rtibia rfoot
    rfoot rtoes
    lowerback upperback
    upperback thorax
    thorax lowerneck lclavicle rclavicle
    lowerneck upperneck
    upperneck head
    lclavicle lhumerus
    lhumerus lradius
    lradius lwrist
    lwrist lhand lthumb
    lhand lfingers
    rclavicle rhumerus
    rhumerus rradius
    rradius rwrist
    rwrist rhand rthumb
    rhand rfingers
  end

#!OML:ASF I:\salsa\salsa 7_09\Patient 1\Session 1\dancerfemale.ASF
:FULLY-SPECIFIED
:DEGREES
630
root 9.98046 16.0366 -1.10008 -533.352 -179.019 168.953
lowerback 3.34476 -3.06917 -2.69601
upperback -10.4604 -3.91521 5.39079
thorax -12.6886 -1.26916 8.01342
lowerneck 10.4683 -18.8669 -12.7822
upperneck -6.80742 -26.1284 17.915
head 0.393252 -13.5442 7.06183
rclavicle -6.21202e-015 -2.5842e-014
rhumerus 43.1139 -3.82035 -104.057
rradius 82.1873
rwrist -5.56752
rhand -11.4874 77.9284
rfingers 7.12502
rthumb 14.5509 48.4587
lclavicle -6.21202e-015 -2.5842e-014
lhumerus 91.0667 -41.5422 38.0142
lradius 76.2532
lwrist -20.7073
lhand 9.60768 50.5004
lfingers 7.12502
lthumb 34.7541 77.1136
rfemur -17.7766 11.9433 26.2333
rtibia 33.5697
rfoot 5.99701 32.0651
rtoes 2.0051
lfemur -31.2319 -30.5798 6.33759
ltibia 57.2904
lfoot -18.0287 6.71606
ltoes -13.3192
631
root 10.2062 16.0454 -1.07141 -533.037 -173.969 169.101
lowerback 3.37261 -2.86399 -2.91928
upperback -10.2306 -3.67443 5.44688
thorax -12.4598 -1.15045 8.15859
lowerneck 9.90569 -18.5286 -12.4507
upperneck -5.71662 -25.6999 17.0388
head 0.571271 -13.2743 6.71607
rclavicle 2.56432e-014 2.127e-014
rhumerus 41.9859 -3.36136 -104.82
rradius 80.0188
rwrist -7.1308
rhand -9.51977 76.9583
rfingers 7.12502
rthumb 16.4461 47.6354
lclavicle 2.56432e-014 2.127e-014
lhumerus 90.5267 -41.0504 38.5261
lradius 73.6883
lwrist -19.3127
lhand 10.5625 52.2736
lfingers 7.12502
lthumb 35.6596 78.673
rfemur -17.7302 14.2927 24.9132
rtibia 32.9173
rfoot 6.3761 32.5294
rtoes 1.70098
lfemur -29.9388 -31.8632 6.81556
ltibia 54.3052
lfoot -17.912 2.1386
ltoes -15.412
632
root 10.4341 16.0575 -1.03288 -532.835 -168.991 169.465
lowerback 3.38005 -2.68589 -3.24552
upperback -9.97427 -3.49511 5.33057
thorax -12.1834 -1.06527 8.17181
lowerneck 9.27799 -17.9887 -12.4566
upperneck -4.42562 -25.0554 16.5501
head 0.889692 -12.9051 6.50595
rclavicle 3.67255e-014 4.57205e-015
rhumerus 41.4809 -2.79074 -106.411
rradius 77.3574
rwrist -7.93583
rhand -8.62799 77.7664
rfingers 7.12502
rthumb 17.3045 48.5168
lclavicle 3.67255e-014 4.57205e-015
lhumerus 90.079 -40.4242 38.7888
lradius 71.0056
lwrist -17.6343
lhand 13.7383 52.61
lfingers 7.12502
lthumb 38.6628 78.2258
rfemur -17.7562 16.6967 23.2807
rtibia 32.3636
rfoot 6.61895 32.7391
rtoes 1.78341
lfemur -28.4697 -32.2362 6.27126
ltibia 51.7557
lfoot -17.2603 -1.87176
ltoes -20.3796
633
root 10.666 16.0651 -0.989564 -532.726 -164.25 169.95
lowerback 3.4394 -2.57976 -3.59369
upperback -9.78881 -3.42236 5.11765
thorax -12.0099 -1.02837 8.11309
lowerneck 8.82505 -17.1733 -12.7834
upperneck -3.20119 -24.0873 16.5019
head 1.21514 -12.3946 6.50464
rclavicle 4.42296e-014 1.04362e-014
rhumerus 40.6741 -1.84276 -106.883
rradius 74.5568
rwrist -9.78566
rhand -7.65335 79.3655
rfingers 7.12502
rthumb 18.2424 50.2009
lclavicle 4.42296e-014 1.04362e-014
lhumerus 89.3464 -39.9878 39.3225
lradius 68.1507
lwrist -16.0284
lhand 19.0931 52.0032
lfingers 7.12502
lthumb 43.6893 76.001
rfemur -18.0187 18.8944 21.4166
rtibia 31.904
rfoot 7.0726 32.8923
rtoes 1.83183
lfemur -27.2217 -31.8283 5.07887
ltibia 49.8971
lfoot -17.2079 -6.85919
ltoes -25.7718
634
root 10.9091 16.0676 -0.943395 -532.702 -159.824 170.486
lowerback 3.52912 -2.4417 -3.89314
upperback -9.61238 -3.29458 4.94581
thorax -11.8768 -0.963602 8.0706
lowerneck 8.38335 -16.42 -13.5004
upperneck -2.17822 -23.2239 16.7033
head 1.56702 -11.9409 6.6252
rclavicle -6.42323e-015 3.06625e-014
rhumerus 39.9699 -1.05749 -107.759
rradius 72.5999
rwrist -11.4871
rhand -5.26188 78.8126
rfingers 7.12502
rthumb 20.5418 49.8794
lclavicle -6.42323e-015 3.06625e-014
lhumerus 88.7372 -39.7715 39.9582
lradius 65.4642
lwrist -14.699
lhand 14.3426 55.363
lfingers 7.12502
lthumb 39.2325 80.816
rfemur -18.5698 20.5184 19.3683
rtibia 31.6499
rfoot 7.60066 33.3731
rtoes 1.08281
lfemur -25.551 -30.8779 3.44911
ltibia 49.0465
lfoot -16.2812 -9.35552
ltoes -30.2479
